<svg xmlns="http://www.w3.org/2000/svg" xmlns:xlink="http://www.w3.org/1999/xlink" width="500" zoomAndPan="magnify" viewBox="0 0 375 374.999991" height="500" preserveAspectRatio="xMidYMid meet" version="1.0"><defs><g/><clipPath id="74481326a9"><path d="M 59.125 59.125 L 315.875 59.125 L 315.875 315.875 L 59.125 315.875 Z M 59.125 59.125 " clip-rule="nonzero"/></clipPath><clipPath id="9cf7ec1c1e"><path d="M 187.5 59.125 C 116.601562 59.125 59.125 116.601562 59.125 187.5 C 59.125 258.398438 116.601562 315.875 187.5 315.875 C 258.398438 315.875 315.875 258.398438 315.875 187.5 C 315.875 116.601562 258.398438 59.125 187.5 59.125 Z M 187.5 59.125 " clip-rule="nonzero"/></clipPath><clipPath id="a53dadefed"><path d="M 112.5 100.457031 L 262.5 100.457031 L 262.5 218.957031 L 112.5 218.957031 Z M 112.5 100.457031 " clip-rule="nonzero"/></clipPath></defs><g clip-path="url(#74481326a9)"><g clip-path="url(#9cf7ec1c1e)"><path fill="#fa9939" d="M 59.125 59.125 L 315.875 59.125 L 315.875 315.875 L 59.125 315.875 Z M 59.125 59.125 " fill-opacity="1" fill-rule="nonzero"/></g></g><g clip-path="url(#a53dadefed)"><path fill="#045174" d="M 168.40625 100.539062 C 168.820312 100.539062 169.203125 100.640625 169.558594 100.851562 C 169.914062 101.058594 170.195312 101.34375 170.398438 101.703125 L 198.148438 102.734375 C 198.601562 102.222656 199.171875 101.96875 199.855469 101.964844 C 200.324219 101.96875 200.753906 102.097656 201.140625 102.363281 C 201.527344 102.628906 201.808594 102.980469 201.980469 103.417969 L 238.183594 120.113281 C 238.464844 119.996094 238.757812 119.9375 239.0625 119.9375 C 239.355469 119.9375 239.640625 119.992188 239.914062 120.101562 C 240.183594 120.210938 240.429688 120.371094 240.640625 120.574219 C 240.851562 120.777344 241.019531 121.011719 241.140625 121.28125 C 241.261719 121.550781 241.332031 121.832031 241.34375 122.125 L 251.640625 133.148438 L 253.703125 135.097656 C 253.855469 135.066406 254.011719 135.046875 254.171875 135.046875 C 254.476562 135.046875 254.765625 135.105469 255.046875 135.222656 C 255.328125 135.339844 255.574219 135.503906 255.789062 135.71875 C 256.003906 135.933594 256.167969 136.179688 256.285156 136.460938 C 256.402344 136.738281 256.460938 137.03125 256.460938 137.335938 C 256.457031 137.984375 256.222656 138.53125 255.757812 138.980469 L 261.246094 158.640625 C 261.597656 158.847656 261.875 159.125 262.078125 159.476562 C 262.28125 159.828125 262.378906 160.207031 262.382812 160.613281 C 262.382812 160.882812 262.335938 161.140625 262.246094 161.390625 C 262.15625 161.640625 262.023438 161.871094 261.851562 162.074219 C 261.683594 162.277344 261.484375 162.449219 261.253906 162.585938 C 261.023438 162.71875 260.777344 162.8125 260.515625 162.859375 L 252.277344 182.867188 C 252.613281 183.285156 252.78125 183.765625 252.785156 184.300781 C 252.785156 184.605469 252.726562 184.898438 252.609375 185.175781 C 252.492188 185.457031 252.328125 185.703125 252.113281 185.917969 C 251.898438 186.132812 251.652344 186.300781 251.371094 186.414062 C 251.089844 186.53125 250.800781 186.589844 250.496094 186.589844 C 249.746094 186.585938 249.140625 186.289062 248.683594 185.691406 L 229.277344 190.117188 C 229.242188 190.390625 229.15625 190.652344 229.027344 190.894531 C 228.894531 191.140625 228.726562 191.351562 228.519531 191.535156 C 228.308594 191.71875 228.078125 191.859375 227.816406 191.957031 C 227.558594 192.054688 227.289062 192.101562 227.011719 192.101562 C 226.246094 192.101562 225.632812 191.792969 225.179688 191.175781 L 211.105469 195.085938 C 210.917969 195.484375 210.636719 195.800781 210.265625 196.035156 C 209.890625 196.273438 209.484375 196.390625 209.042969 196.390625 C 208.738281 196.390625 208.449219 196.332031 208.167969 196.214844 C 207.886719 196.101562 207.640625 195.933594 207.425781 195.722656 C 207.210938 195.507812 207.046875 195.257812 206.929688 194.980469 C 206.8125 194.699219 206.757812 194.40625 206.757812 194.105469 C 206.757812 194.027344 206.761719 193.949219 206.769531 193.871094 L 200.492188 188.378906 C 200.164062 188.546875 199.816406 188.628906 199.445312 188.632812 C 199.074219 188.628906 198.726562 188.546875 198.394531 188.375 C 198.066406 188.203125 197.792969 187.96875 197.582031 187.664062 L 190.007812 190.234375 C 189.867188 190.726562 189.59375 191.125 189.1875 191.433594 C 188.777344 191.742188 188.316406 191.898438 187.804688 191.898438 C 187.640625 191.898438 187.480469 191.878906 187.316406 191.84375 L 172.496094 207.183594 C 172.519531 207.316406 172.53125 207.449219 172.53125 207.582031 C 172.53125 207.886719 172.472656 208.175781 172.359375 208.457031 C 172.242188 208.738281 172.078125 208.984375 171.863281 209.199219 C 171.648438 209.414062 171.402344 209.578125 171.121094 209.695312 C 170.839844 209.808594 170.546875 209.867188 170.246094 209.867188 C 170.085938 209.867188 169.929688 209.851562 169.773438 209.816406 L 162.65625 216.003906 C 162.707031 216.1875 162.730469 216.375 162.730469 216.566406 C 162.730469 216.871094 162.671875 217.160156 162.554688 217.441406 C 162.441406 217.722656 162.273438 217.96875 162.058594 218.183594 C 161.847656 218.398438 161.597656 218.5625 161.316406 218.679688 C 161.039062 218.796875 160.746094 218.855469 160.441406 218.855469 C 160.152344 218.851562 159.871094 218.800781 159.597656 218.691406 C 159.328125 218.582031 159.085938 218.425781 158.871094 218.226562 C 158.660156 218.027344 158.492188 217.792969 158.371094 217.527344 C 158.246094 217.261719 158.179688 216.984375 158.164062 216.691406 L 151.648438 215.285156 C 151.191406 215.894531 150.585938 216.199219 149.824219 216.199219 C 149.519531 216.199219 149.230469 216.140625 148.949219 216.023438 C 148.667969 215.90625 148.421875 215.742188 148.207031 215.527344 C 147.992188 215.3125 147.828125 215.066406 147.710938 214.785156 C 147.59375 214.507812 147.539062 214.214844 147.539062 213.910156 C 147.539062 213.609375 147.59375 213.316406 147.710938 213.035156 C 147.828125 212.753906 147.992188 212.507812 148.207031 212.292969 C 148.421875 212.078125 148.667969 211.914062 148.949219 211.796875 C 149.230469 211.683594 149.519531 211.625 149.824219 211.625 C 150.109375 211.625 150.386719 211.675781 150.65625 211.78125 L 154.65625 203.328125 C 154.402344 202.945312 154.277344 202.527344 154.277344 202.066406 C 154.277344 201.902344 154.296875 201.738281 154.332031 201.574219 L 151.753906 197.707031 C 151.527344 197.78125 151.289062 197.820312 151.050781 197.820312 C 150.671875 197.820312 150.3125 197.730469 149.976562 197.550781 C 149.640625 197.375 149.367188 197.125 149.15625 196.8125 L 140.910156 197.429688 C 140.730469 197.855469 140.453125 198.195312 140.066406 198.453125 C 139.683594 198.710938 139.261719 198.839844 138.796875 198.839844 C 138.496094 198.839844 138.203125 198.78125 137.921875 198.667969 C 137.640625 198.550781 137.394531 198.382812 137.179688 198.171875 C 136.964844 197.957031 136.800781 197.707031 136.683594 197.429688 C 136.570312 197.148438 136.511719 196.855469 136.511719 196.554688 C 136.511719 196.484375 136.515625 196.417969 136.519531 196.351562 L 131.890625 189.007812 C 131.355469 188.917969 130.90625 188.671875 130.550781 188.261719 L 126.195312 188.261719 C 126.015625 188.683594 125.734375 189.019531 125.351562 189.273438 C 124.972656 189.523438 124.550781 189.652344 124.09375 189.652344 C 123.792969 189.652344 123.5 189.59375 123.21875 189.476562 C 122.9375 189.359375 122.691406 189.195312 122.476562 188.980469 C 122.261719 188.765625 122.097656 188.519531 121.980469 188.238281 C 121.867188 187.960938 121.808594 187.667969 121.808594 187.363281 C 121.808594 186.683594 122.0625 186.117188 122.566406 185.664062 L 114.648438 173.707031 C 114.371094 173.675781 114.105469 173.59375 113.855469 173.464844 C 113.605469 173.335938 113.386719 173.167969 113.199219 172.957031 C 113.015625 172.75 112.871094 172.511719 112.769531 172.25 C 112.667969 171.988281 112.617188 171.71875 112.617188 171.4375 C 112.617188 171.183594 112.660156 170.933594 112.742188 170.695312 C 112.828125 170.453125 112.945312 170.234375 113.101562 170.03125 C 113.257812 169.832031 113.441406 169.664062 113.65625 169.523438 C 113.867188 169.386719 114.097656 169.285156 114.34375 169.222656 L 116.609375 154.417969 C 116.261719 154.210938 115.984375 153.933594 115.78125 153.582031 C 115.578125 153.230469 115.476562 152.851562 115.476562 152.445312 C 115.476562 152.140625 115.535156 151.847656 115.652344 151.570312 C 115.769531 151.289062 115.933594 151.042969 116.148438 150.828125 C 116.363281 150.613281 116.609375 150.449219 116.890625 150.332031 C 117.167969 150.214844 117.460938 150.15625 117.765625 150.15625 C 117.851562 150.160156 117.9375 150.164062 118.019531 150.175781 L 133.1875 123.640625 C 132.953125 123.269531 132.835938 122.863281 132.835938 122.425781 C 132.835938 122.125 132.894531 121.832031 133.007812 121.550781 C 133.125 121.269531 133.289062 121.023438 133.503906 120.808594 C 133.71875 120.59375 133.964844 120.429688 134.246094 120.3125 C 134.527344 120.199219 134.820312 120.140625 135.121094 120.140625 C 135.539062 120.140625 135.921875 120.246094 136.28125 120.457031 L 166.175781 102.335938 C 166.230469 102.082031 166.328125 101.84375 166.464844 101.621094 C 166.601562 101.398438 166.773438 101.207031 166.976562 101.042969 C 167.175781 100.878906 167.402344 100.753906 167.648438 100.667969 C 167.894531 100.582031 168.144531 100.539062 168.40625 100.539062 Z M 170.613281 103.425781 C 170.488281 103.875 170.253906 104.25 169.902344 104.554688 C 169.550781 104.855469 169.144531 105.035156 168.683594 105.09375 L 165.238281 120.285156 L 197.589844 104.558594 C 197.585938 104.515625 197.578125 104.472656 197.574219 104.429688 Z M 166.527344 104.128906 L 138.660156 121.023438 L 161.261719 121.1875 C 161.457031 120.804688 161.738281 120.5 162.105469 120.273438 C 162.472656 120.050781 162.871094 119.9375 163.300781 119.9375 C 163.386719 119.9375 163.46875 119.941406 163.554688 119.953125 L 167.023438 104.644531 C 166.832031 104.5 166.667969 104.328125 166.527344 104.128906 Z M 201.902344 105.269531 C 201.773438 105.527344 201.601562 105.757812 201.382812 105.949219 L 213.25 124.332031 C 213.476562 124.261719 213.707031 124.226562 213.945312 124.222656 C 214.371094 124.226562 214.765625 124.335938 215.132812 124.558594 C 215.496094 124.78125 215.777344 125.082031 215.972656 125.460938 L 236.824219 121.761719 C 236.847656 121.644531 236.878906 121.527344 236.921875 121.417969 Z M 198.378906 106.085938 L 168.15625 120.773438 L 192.410156 123.4375 Z M 199.925781 106.855469 L 194.160156 123.628906 L 211.863281 125.570312 C 211.882812 125.527344 211.902344 125.484375 211.925781 125.441406 Z M 165.941406 122.257812 L 187.773438 135.425781 C 187.960938 135.300781 188.167969 135.207031 188.382812 135.144531 L 191.839844 125.097656 Z M 137.386719 122.730469 C 137.328125 123.171875 137.152344 123.566406 136.863281 123.90625 L 141.476562 135.984375 L 161.121094 122.914062 C 161.121094 122.910156 161.117188 122.90625 161.117188 122.898438 Z M 237.132812 123.449219 L 216.128906 127.175781 C 216.058594 127.410156 215.953125 127.628906 215.8125 127.828125 L 232.734375 145.269531 C 232.800781 145.261719 232.867188 145.253906 232.933594 145.253906 C 233.078125 145.253906 233.222656 145.269531 233.367188 145.296875 C 233.492188 144.644531 233.609375 144.023438 233.78125 143.160156 C 234.28125 140.648438 234.941406 137.378906 235.605469 134.136719 C 236.472656 129.902344 237.191406 126.445312 237.6875 124.046875 C 237.464844 123.878906 237.28125 123.679688 237.132812 123.445312 Z M 165.496094 123.988281 L 175.683594 154.921875 C 175.910156 154.976562 176.125 155.066406 176.324219 155.183594 L 187.390625 138.921875 C 186.960938 138.480469 186.746094 137.953125 186.742188 137.335938 C 186.746094 137.167969 186.765625 137.003906 186.800781 136.84375 Z M 162.226562 124.238281 L 142.101562 137.628906 L 148.136719 153.429688 C 148.152344 153.429688 148.171875 153.429688 148.191406 153.429688 C 148.476562 153.429688 148.75 153.480469 149.015625 153.582031 L 162.261719 124.265625 C 162.25 124.257812 162.238281 124.25 162.226562 124.242188 Z M 239.867188 124.359375 C 239.699219 124.425781 239.523438 124.46875 239.347656 124.488281 C 238.847656 126.90625 238.140625 130.324219 237.289062 134.484375 C 236.625 137.726562 235.960938 140.992188 235.464844 143.496094 C 235.320312 144.210938 235.234375 144.683594 235.121094 145.253906 L 251.917969 136.941406 C 251.964844 136.6875 252.050781 136.453125 252.171875 136.230469 L 250.421875 134.355469 Z M 134.582031 124.648438 L 119.910156 150.328125 L 140.011719 136.957031 L 135.332031 124.703125 C 135.261719 124.710938 135.191406 124.71875 135.121094 124.71875 C 134.941406 124.71875 134.761719 124.695312 134.582031 124.652344 Z M 163.933594 124.730469 L 150.328125 154.84375 L 173 156.355469 C 173.183594 155.851562 173.507812 155.460938 173.96875 155.183594 Z M 193.585938 125.289062 L 190.132812 135.332031 C 190.390625 135.472656 190.609375 135.65625 190.796875 135.882812 L 211.128906 127.214844 Z M 212.683594 128.417969 L 191.378906 137.496094 L 203.308594 144.140625 C 203.730469 143.796875 204.210938 143.625 204.753906 143.625 C 204.808594 143.621094 204.863281 143.621094 204.917969 143.625 L 212.6875 128.414062 C 212.6875 128.414062 212.683594 128.414062 212.683594 128.414062 Z M 214.402344 128.839844 L 206.457031 144.386719 C 206.847656 144.820312 207.039062 145.328125 207.042969 145.910156 C 207.042969 146.433594 206.882812 146.902344 206.558594 147.3125 L 217.691406 165.070312 C 217.734375 165.070312 217.78125 165.070312 217.824219 165.070312 C 218.128906 165.074219 218.421875 165.132812 218.703125 165.25 L 231.214844 149.054688 C 230.835938 148.625 230.648438 148.125 230.648438 147.550781 C 230.648438 147.011719 230.816406 146.53125 231.15625 146.113281 L 214.402344 128.84375 Z M 140.636719 138.601562 L 120.191406 152.199219 L 146.472656 153.886719 Z M 252.3125 138.660156 L 235.882812 146.792969 L 258.679688 158.820312 C 258.898438 158.644531 259.140625 158.515625 259.40625 158.433594 L 254.15625 139.621094 C 253.789062 139.617188 253.441406 139.53125 253.117188 139.363281 C 252.792969 139.191406 252.523438 138.957031 252.3125 138.660156 Z M 190.578125 139.015625 C 190.140625 139.417969 189.625 139.621094 189.03125 139.621094 C 189.015625 139.621094 189.003906 139.621094 188.992188 139.621094 L 177.382812 156.679688 C 177.417969 156.832031 177.433594 156.988281 177.433594 157.144531 C 177.433594 157.328125 177.410156 157.511719 177.363281 157.691406 L 185.160156 169.558594 C 185.351562 169.5625 185.539062 169.585938 185.726562 169.632812 L 202.824219 147.132812 C 202.585938 146.761719 202.46875 146.355469 202.46875 145.914062 C 202.46875 145.824219 202.476562 145.738281 202.484375 145.648438 Z M 204.21875 148.132812 L 187.101562 170.65625 C 187.117188 170.679688 187.132812 170.707031 187.148438 170.730469 L 215.617188 166.753906 C 215.714844 166.398438 215.886719 166.085938 216.132812 165.816406 L 205.074219 148.171875 C 204.96875 148.191406 204.863281 148.199219 204.753906 148.199219 C 204.574219 148.199219 204.394531 148.175781 204.21875 148.132812 Z M 235.164062 148.355469 L 243.503906 166.566406 C 243.886719 166.664062 244.21875 166.847656 244.503906 167.113281 L 257.808594 160.539062 C 257.8125 160.464844 257.820312 160.386719 257.828125 160.3125 Z M 234.011719 149.957031 L 229.800781 178.191406 L 240.890625 169.792969 C 240.734375 169.472656 240.65625 169.136719 240.652344 168.78125 C 240.65625 168.386719 240.75 168.011719 240.945312 167.667969 C 241.140625 167.320312 241.40625 167.042969 241.742188 166.835938 Z M 232.179688 150.605469 L 219.929688 166.460938 C 220.050781 166.746094 220.109375 167.042969 220.109375 167.351562 C 220.109375 167.625 220.0625 167.890625 219.96875 168.144531 C 219.875 168.402344 219.738281 168.632812 219.558594 168.839844 C 219.382812 169.046875 219.171875 169.214844 218.933594 169.347656 C 218.695312 169.480469 218.441406 169.566406 218.171875 169.609375 L 210.28125 192.179688 C 210.464844 192.296875 210.628906 192.441406 210.773438 192.605469 L 227.847656 179.671875 Z M 119.644531 153.886719 L 124.628906 166.492188 L 145.910156 155.851562 C 145.90625 155.804688 145.90625 155.757812 145.90625 155.710938 C 145.90625 155.664062 145.90625 155.617188 145.910156 155.570312 Z M 118.253906 155.023438 L 116.042969 169.457031 C 116.421875 169.671875 116.710938 169.96875 116.917969 170.347656 L 123.089844 167.261719 Z M 150.582031 156.578125 L 153.621094 176.003906 L 173.074219 158.101562 C 173.066406 158.09375 173.0625 158.085938 173.058594 158.078125 L 150.582031 156.582031 Z M 149.042969 157.832031 C 148.769531 157.945312 148.484375 158 148.191406 158 C 147.964844 158 147.746094 157.964844 147.527344 157.898438 L 135.070312 174.367188 L 151.285156 176.953125 C 151.484375 176.761719 151.707031 176.605469 151.960938 176.492188 L 149.042969 157.835938 Z M 145.210938 158.121094 L 125.261719 168.09375 L 127.25 173.117188 L 133.152344 174.058594 Z M 174.328125 159.277344 L 154.765625 177.28125 C 155.039062 177.671875 155.175781 178.105469 155.175781 178.582031 C 155.171875 178.605469 155.171875 178.628906 155.171875 178.652344 L 170.765625 188.109375 C 171.046875 187.859375 171.367188 187.6875 171.734375 187.597656 L 174.828125 159.402344 C 174.65625 159.378906 174.488281 159.335938 174.328125 159.277344 Z M 176.539062 159.558594 L 173.523438 187.019531 L 183.230469 173.082031 C 182.988281 172.707031 182.863281 172.292969 182.863281 171.84375 C 182.867188 171.207031 183.089844 170.667969 183.542969 170.21875 Z M 258.410156 162.15625 L 245.222656 168.671875 C 245.226562 168.707031 245.226562 168.746094 245.230469 168.78125 C 245.226562 169.34375 245.042969 169.839844 244.675781 170.269531 L 250.628906 182.019531 C 250.675781 182.023438 250.71875 182.027344 250.765625 182.035156 L 258.808594 162.503906 C 258.664062 162.40625 258.53125 162.289062 258.410156 162.160156 Z M 215.820312 168.457031 L 187.621094 172.398438 L 198.648438 184.203125 C 198.90625 184.105469 199.171875 184.054688 199.445312 184.054688 C 200.019531 184.054688 200.523438 184.246094 200.957031 184.628906 L 215.824219 168.460938 C 215.824219 168.460938 215.824219 168.460938 215.820312 168.460938 Z M 123.722656 168.863281 L 118.125 171.664062 L 125.28125 172.804688 Z M 215.898438 170.917969 L 201.730469 186.320312 C 201.730469 186.328125 201.734375 186.335938 201.734375 186.34375 C 201.730469 186.59375 201.691406 186.835938 201.609375 187.074219 L 207.609375 192.324219 C 207.894531 192.09375 208.214844 191.941406 208.574219 191.863281 L 215.894531 170.917969 Z M 242.210938 170.945312 L 229.441406 180.617188 L 228.347656 187.960938 C 228.539062 188.097656 228.707031 188.265625 228.847656 188.453125 L 248.226562 184.035156 C 248.296875 183.453125 248.550781 182.96875 248.992188 182.582031 L 243.152344 171.058594 C 243.082031 171.066406 243.011719 171.070312 242.941406 171.074219 C 242.691406 171.074219 242.449219 171.03125 242.210938 170.953125 Z M 116.4375 173.132812 C 116.414062 173.152344 116.390625 173.175781 116.367188 173.195312 L 124.238281 185.082031 C 124.410156 185.09375 124.578125 185.125 124.742188 185.171875 L 128.308594 180.460938 L 126.015625 174.660156 Z M 186.699219 173.921875 L 188.929688 187.621094 C 189.300781 187.832031 189.589844 188.121094 189.800781 188.492188 L 197.1875 185.984375 C 197.222656 185.765625 197.289062 185.558594 197.382812 185.359375 Z M 184.636719 174.070312 L 174.457031 188.683594 L 185.582031 189.09375 C 185.675781 188.695312 185.863281 188.34375 186.144531 188.042969 C 186.425781 187.742188 186.765625 187.535156 187.160156 187.417969 L 184.992188 174.125 C 184.871094 174.117188 184.753906 174.097656 184.636719 174.070312 Z M 127.984375 174.972656 L 129.519531 178.859375 L 131.976562 175.609375 Z M 133.898438 175.917969 L 130.257812 180.726562 L 131.757812 184.523438 C 131.925781 184.484375 132.09375 184.464844 132.261719 184.464844 C 132.964844 184.464844 133.542969 184.730469 134 185.265625 L 149.195312 178.359375 Z M 150.1875 179.792969 L 134.542969 186.902344 C 134.5 187.59375 134.199219 188.152344 133.644531 188.570312 L 137.492188 194.675781 C 137.882812 194.402344 138.320312 194.265625 138.796875 194.265625 C 138.917969 194.265625 139.039062 194.277344 139.15625 194.296875 Z M 154.46875 180.234375 C 154.195312 180.492188 153.878906 180.675781 153.519531 180.78125 L 152.347656 193.652344 C 152.65625 193.867188 152.898438 194.140625 153.074219 194.472656 C 153.25 194.804688 153.335938 195.15625 153.335938 195.53125 C 153.335938 195.90625 153.25 196.261719 153.074219 196.59375 L 155.410156 200.09375 C 155.765625 199.886719 156.148438 199.78125 156.5625 199.78125 C 157.035156 199.78125 157.464844 199.914062 157.851562 200.179688 L 170.136719 190.589844 C 170.046875 190.339844 170 190.082031 170 189.816406 C 170 189.761719 170 189.707031 170.003906 189.65625 Z M 151.753906 180.566406 L 140.632812 195.191406 C 140.75 195.351562 140.847656 195.523438 140.917969 195.707031 L 148.800781 195.117188 C 148.886719 194.648438 149.101562 194.246094 149.441406 193.910156 C 149.78125 193.570312 150.1875 193.363281 150.660156 193.28125 L 151.8125 180.601562 C 151.792969 180.589844 151.773438 180.578125 151.753906 180.566406 Z M 227.488281 182.097656 L 213.609375 192.609375 L 224.75 189.515625 C 224.816406 189.011719 225.027344 188.578125 225.382812 188.214844 C 225.742188 187.851562 226.171875 187.632812 226.671875 187.554688 Z M 129.046875 182.328125 L 126.085938 186.242188 C 126.140625 186.339844 126.1875 186.441406 126.226562 186.546875 L 129.988281 186.546875 C 130.019531 186.1875 130.128906 185.855469 130.320312 185.546875 Z M 174.496094 190.402344 C 174.378906 190.84375 174.148438 191.21875 173.804688 191.523438 C 173.460938 191.828125 173.0625 192.011719 172.605469 192.078125 L 171.730469 205.503906 L 185.886719 190.851562 C 185.882812 190.84375 185.875 190.832031 185.871094 190.820312 L 174.496094 190.398438 Z M 170.882812 192.1875 L 158.804688 201.613281 C 158.835938 201.761719 158.851562 201.914062 158.851562 202.066406 C 158.851562 202.121094 158.847656 202.175781 158.84375 202.230469 L 168.542969 206.054688 C 168.941406 205.613281 169.433594 205.363281 170.027344 205.304688 Z M 158.082031 203.773438 C 157.996094 203.847656 157.90625 203.917969 157.8125 203.980469 L 159.378906 208.160156 C 160.09375 208.210938 160.660156 208.527344 161.078125 209.109375 L 167.976562 207.855469 C 167.96875 207.792969 167.964844 207.730469 167.960938 207.667969 Z M 156.09375 204.304688 L 152.519531 211.851562 L 156.941406 210.21875 C 157.003906 209.597656 157.269531 209.089844 157.746094 208.6875 L 156.101562 204.304688 C 156.101562 204.304688 156.097656 204.304688 156.09375 204.304688 Z M 167.257812 209.730469 L 161.476562 210.78125 C 161.382812 211.398438 161.085938 211.894531 160.585938 212.269531 L 160.847656 214.316406 C 161.128906 214.367188 161.394531 214.46875 161.636719 214.617188 Z M 157.433594 211.867188 L 152.453125 213.707031 L 158.726562 215.058594 C 158.855469 214.910156 159 214.78125 159.164062 214.671875 L 158.910156 212.703125 C 158.304688 212.621094 157.8125 212.34375 157.433594 211.867188 Z M 157.433594 211.867188 " fill-opacity="1" fill-rule="nonzero"/></g><g fill="#001f3d" fill-opacity="1"><g transform="translate(162.473556, 267.243806)"><g><path d="M 19.734375 0 L 3.953125 0 C 3.398438 0 3.125 -0.28125 3.125 -0.84375 L 3.125 -30.65625 C 3.125 -31.21875 3.398438 -31.5 3.953125 -31.5 L 9.4375 -31.5 C 10 -31.5 10.28125 -31.21875 10.28125 -30.65625 L 10.28125 -6.1875 L 19.734375 -6.1875 C 20.285156 -6.1875 20.5625 -5.910156 20.5625 -5.359375 L 20.5625 -0.84375 C 20.5625 -0.28125 20.285156 0 19.734375 0 Z M 19.734375 0 "/></g></g></g><g fill="#001f3d" fill-opacity="1"><g transform="translate(183.816236, 267.243806)"><g><path d="M 15.53125 0 L 3.953125 0 C 3.398438 0 3.125 -0.28125 3.125 -0.84375 L 3.125 -30.65625 C 3.125 -31.21875 3.398438 -31.5 3.953125 -31.5 L 15.15625 -31.5 C 17.113281 -31.5 18.753906 -31.289062 20.078125 -30.875 C 21.398438 -30.457031 22.457031 -29.875 23.25 -29.125 C 24.050781 -28.382812 24.628906 -27.523438 24.984375 -26.546875 C 25.335938 -25.566406 25.515625 -24.519531 25.515625 -23.40625 C 25.515625 -21.757812 25.144531 -20.320312 24.40625 -19.09375 C 23.664062 -17.863281 22.640625 -16.894531 21.328125 -16.1875 C 22.628906 -15.75 23.671875 -15.160156 24.453125 -14.421875 C 25.242188 -13.679688 25.816406 -12.84375 26.171875 -11.90625 C 26.523438 -10.96875 26.703125 -9.972656 26.703125 -8.921875 C 26.703125 -8.078125 26.597656 -7.226562 26.390625 -6.375 C 26.191406 -5.519531 25.84375 -4.707031 25.34375 -3.9375 C 24.851562 -3.175781 24.179688 -2.5 23.328125 -1.90625 C 22.472656 -1.320312 21.40625 -0.859375 20.125 -0.515625 C 18.851562 -0.171875 17.320312 0 15.53125 0 Z M 10.28125 -25.3125 L 10.28125 -18.84375 L 15.359375 -18.84375 C 16.316406 -18.84375 17.066406 -18.984375 17.609375 -19.265625 C 18.148438 -19.554688 18.535156 -19.953125 18.765625 -20.453125 C 18.992188 -20.953125 19.109375 -21.519531 19.109375 -22.15625 C 19.109375 -22.769531 18.988281 -23.3125 18.75 -23.78125 C 18.507812 -24.257812 18.09375 -24.632812 17.5 -24.90625 C 16.914062 -25.175781 16.09375 -25.3125 15.03125 -25.3125 Z M 10.28125 -13.34375 L 10.28125 -6.1875 L 15.359375 -6.1875 C 16.460938 -6.1875 17.316406 -6.347656 17.921875 -6.671875 C 18.523438 -7.003906 18.941406 -7.445312 19.171875 -8 C 19.410156 -8.5625 19.53125 -9.160156 19.53125 -9.796875 C 19.53125 -10.484375 19.398438 -11.09375 19.140625 -11.625 C 18.890625 -12.15625 18.46875 -12.570312 17.875 -12.875 C 17.289062 -13.1875 16.492188 -13.34375 15.484375 -13.34375 Z M 10.28125 -13.34375 "/></g></g></g><g fill="#001f3d" fill-opacity="1"><g transform="translate(127.704027, 290.493804)"><g><path d="M 9.796875 0.421875 C 8.492188 0.421875 7.300781 0.21875 6.21875 -0.1875 C 5.132812 -0.601562 4.203125 -1.191406 3.421875 -1.953125 C 2.640625 -2.710938 2.03125 -3.625 1.59375 -4.6875 C 1.164062 -5.75 0.953125 -6.9375 0.953125 -8.25 C 0.953125 -9.5625 1.164062 -10.75 1.59375 -11.8125 C 2.03125 -12.875 2.640625 -13.785156 3.421875 -14.546875 C 4.203125 -15.304688 5.132812 -15.890625 6.21875 -16.296875 C 7.300781 -16.710938 8.492188 -16.921875 9.796875 -16.921875 C 11.097656 -16.921875 12.289062 -16.710938 13.375 -16.296875 C 14.457031 -15.890625 15.394531 -15.304688 16.1875 -14.546875 C 16.976562 -13.785156 17.585938 -12.875 18.015625 -11.8125 C 18.441406 -10.75 18.65625 -9.5625 18.65625 -8.25 C 18.65625 -6.9375 18.441406 -5.75 18.015625 -4.6875 C 17.585938 -3.625 16.976562 -2.710938 16.1875 -1.953125 C 15.394531 -1.191406 14.457031 -0.601562 13.375 -0.1875 C 12.289062 0.21875 11.097656 0.421875 9.796875 0.421875 Z M 9.796875 -3.015625 C 10.546875 -3.015625 11.226562 -3.132812 11.84375 -3.375 C 12.46875 -3.613281 13.003906 -3.960938 13.453125 -4.421875 C 13.910156 -4.878906 14.265625 -5.429688 14.515625 -6.078125 C 14.773438 -6.722656 14.90625 -7.445312 14.90625 -8.25 C 14.90625 -9.050781 14.773438 -9.773438 14.515625 -10.421875 C 14.265625 -11.066406 13.910156 -11.617188 13.453125 -12.078125 C 13.003906 -12.535156 12.46875 -12.882812 11.84375 -13.125 C 11.226562 -13.375 10.546875 -13.5 9.796875 -13.5 C 9.054688 -13.5 8.375 -13.375 7.75 -13.125 C 7.132812 -12.882812 6.597656 -12.535156 6.140625 -12.078125 C 5.679688 -11.617188 5.328125 -11.066406 5.078125 -10.421875 C 4.835938 -9.773438 4.71875 -9.050781 4.71875 -8.25 C 4.71875 -7.457031 4.84375 -6.738281 5.09375 -6.09375 C 5.34375 -5.445312 5.691406 -4.894531 6.140625 -4.4375 C 6.597656 -3.976562 7.132812 -3.625 7.75 -3.375 C 8.375 -3.132812 9.054688 -3.015625 9.796875 -3.015625 Z M 9.796875 -3.015625 "/></g></g></g><g fill="#001f3d" fill-opacity="1"><g transform="translate(147.337258, 290.493804)"><g><path d="M 4.890625 0 L 2.09375 0 C 1.800781 0 1.65625 -0.144531 1.65625 -0.4375 L 1.65625 -16.140625 C 1.65625 -16.410156 1.707031 -16.609375 1.8125 -16.734375 C 1.925781 -16.867188 2.0625 -16.914062 2.21875 -16.875 C 2.382812 -16.84375 2.554688 -16.71875 2.734375 -16.5 L 9.796875 -7.375 L 16.90625 -16.5 C 17.082031 -16.71875 17.25 -16.84375 17.40625 -16.875 C 17.570312 -16.914062 17.707031 -16.867188 17.8125 -16.734375 C 17.925781 -16.609375 17.984375 -16.410156 17.984375 -16.140625 L 17.984375 -0.4375 C 17.984375 -0.144531 17.835938 0 17.546875 0 L 14.75 0 C 14.457031 0 14.3125 -0.144531 14.3125 -0.4375 L 14.3125 -7.921875 L 10.109375 -2.734375 C 9.910156 -2.472656 9.707031 -2.472656 9.5 -2.734375 L 5.328125 -7.890625 L 5.328125 -0.4375 C 5.328125 -0.144531 5.179688 0 4.890625 0 Z M 4.890625 0 "/></g></g></g><g fill="#001f3d" fill-opacity="1"><g transform="translate(166.970489, 290.493804)"><g><path d="M 4.859375 0 L 2.09375 0 C 1.800781 0 1.65625 -0.144531 1.65625 -0.4375 L 1.65625 -16.125 C 1.65625 -16.5 1.757812 -16.738281 1.96875 -16.84375 C 2.175781 -16.945312 2.429688 -16.863281 2.734375 -16.59375 L 12.046875 -7.296875 L 12.046875 -16.0625 C 12.046875 -16.351562 12.195312 -16.5 12.5 -16.5 L 15.25 -16.5 C 15.539062 -16.5 15.6875 -16.351562 15.6875 -16.0625 L 15.6875 -0.390625 C 15.6875 -0.140625 15.632812 0.0507812 15.53125 0.1875 C 15.425781 0.320312 15.285156 0.375 15.109375 0.34375 C 14.929688 0.320312 14.738281 0.207031 14.53125 0 L 5.28125 -9.421875 L 5.28125 -0.4375 C 5.28125 -0.144531 5.140625 0 4.859375 0 Z M 4.859375 0 "/></g></g></g><g fill="#001f3d" fill-opacity="1"><g transform="translate(184.316046, 290.493804)"><g><path d="M 4.9375 0 L 2.078125 0 C 1.785156 0 1.640625 -0.144531 1.640625 -0.4375 L 1.640625 -16.0625 C 1.640625 -16.351562 1.785156 -16.5 2.078125 -16.5 L 4.9375 -16.5 C 5.226562 -16.5 5.375 -16.351562 5.375 -16.0625 L 5.375 -0.4375 C 5.375 -0.144531 5.226562 0 4.9375 0 Z M 4.9375 0 "/></g></g></g><g fill="#001f3d" fill-opacity="1"><g transform="translate(191.329454, 290.493804)"><g/></g></g><g fill="#001f3d" fill-opacity="1"><g transform="translate(198.160272, 290.493804)"><g><path d="M 4.9375 0 L 2.078125 0 C 1.785156 0 1.640625 -0.144531 1.640625 -0.4375 L 1.640625 -16.0625 C 1.640625 -16.351562 1.785156 -16.5 2.078125 -16.5 L 4.9375 -16.5 C 5.226562 -16.5 5.375 -16.351562 5.375 -16.0625 L 5.375 -8.71875 L 11.796875 -8.71875 L 11.796875 -16.0625 C 11.796875 -16.351562 11.941406 -16.5 12.234375 -16.5 L 15.109375 -16.5 C 15.410156 -16.5 15.5625 -16.351562 15.5625 -16.0625 L 15.5625 -0.4375 C 15.5625 -0.144531 15.410156 0 15.109375 0 L 12.234375 0 C 11.941406 0 11.796875 -0.144531 11.796875 -0.4375 L 11.796875 -5.484375 L 5.375 -5.484375 L 5.375 -0.4375 C 5.375 -0.144531 5.226562 0 4.9375 0 Z M 4.9375 0 "/></g></g></g><g fill="#001f3d" fill-opacity="1"><g transform="translate(215.355465, 290.493804)"><g><path d="M 8.4375 0.421875 C 7.519531 0.421875 6.640625 0.304688 5.796875 0.078125 C 4.960938 -0.148438 4.21875 -0.5 3.5625 -0.96875 C 2.914062 -1.4375 2.40625 -2.039062 2.03125 -2.78125 C 1.664062 -3.53125 1.484375 -4.429688 1.484375 -5.484375 L 1.484375 -16.0625 C 1.484375 -16.351562 1.628906 -16.5 1.921875 -16.5 L 4.890625 -16.5 C 5.179688 -16.5 5.328125 -16.351562 5.328125 -16.0625 L 5.328125 -6.375 C 5.328125 -5.5625 5.445312 -4.90625 5.6875 -4.40625 C 5.9375 -3.914062 6.289062 -3.554688 6.75 -3.328125 C 7.21875 -3.109375 7.78125 -3 8.4375 -3 C 9.101562 -3 9.671875 -3.109375 10.140625 -3.328125 C 10.609375 -3.554688 10.960938 -3.914062 11.203125 -4.40625 C 11.441406 -4.90625 11.5625 -5.5625 11.5625 -6.375 L 11.5625 -16.0625 C 11.5625 -16.351562 11.707031 -16.5 12 -16.5 L 14.96875 -16.5 C 15.257812 -16.5 15.40625 -16.351562 15.40625 -16.0625 L 15.40625 -5.484375 C 15.40625 -4.429688 15.222656 -3.53125 14.859375 -2.78125 C 14.492188 -2.039062 13.988281 -1.4375 13.34375 -0.96875 C 12.707031 -0.5 11.96875 -0.148438 11.125 0.078125 C 10.28125 0.304688 9.382812 0.421875 8.4375 0.421875 Z M 8.4375 0.421875 "/></g></g></g><g fill="#001f3d" fill-opacity="1"><g transform="translate(232.239184, 290.493804)"><g><path d="M 8.125 0 L 2.078125 0 C 1.785156 0 1.640625 -0.144531 1.640625 -0.4375 L 1.640625 -16.0625 C 1.640625 -16.351562 1.785156 -16.5 2.078125 -16.5 L 7.9375 -16.5 C 8.957031 -16.5 9.816406 -16.390625 10.515625 -16.171875 C 11.210938 -15.953125 11.769531 -15.644531 12.1875 -15.25 C 12.601562 -14.863281 12.898438 -14.414062 13.078125 -13.90625 C 13.265625 -13.394531 13.359375 -12.84375 13.359375 -12.25 C 13.359375 -11.394531 13.164062 -10.644531 12.78125 -10 C 12.394531 -9.351562 11.859375 -8.84375 11.171875 -8.46875 C 11.847656 -8.238281 12.390625 -7.929688 12.796875 -7.546875 C 13.210938 -7.160156 13.515625 -6.722656 13.703125 -6.234375 C 13.890625 -5.742188 13.984375 -5.222656 13.984375 -4.671875 C 13.984375 -4.222656 13.929688 -3.773438 13.828125 -3.328125 C 13.722656 -2.890625 13.539062 -2.46875 13.28125 -2.0625 C 13.019531 -1.664062 12.664062 -1.3125 12.21875 -1 C 11.769531 -0.6875 11.210938 -0.441406 10.546875 -0.265625 C 9.878906 -0.0859375 9.070312 0 8.125 0 Z M 5.375 -13.25 L 5.375 -9.875 L 8.046875 -9.875 C 8.546875 -9.875 8.9375 -9.945312 9.21875 -10.09375 C 9.5 -10.25 9.703125 -10.457031 9.828125 -10.71875 C 9.953125 -10.976562 10.015625 -11.273438 10.015625 -11.609375 C 10.015625 -11.921875 9.953125 -12.203125 9.828125 -12.453125 C 9.703125 -12.710938 9.484375 -12.910156 9.171875 -13.046875 C 8.867188 -13.179688 8.4375 -13.25 7.875 -13.25 Z M 5.375 -7 L 5.375 -3.25 L 8.046875 -3.25 C 8.628906 -3.25 9.078125 -3.332031 9.390625 -3.5 C 9.703125 -3.675781 9.921875 -3.90625 10.046875 -4.1875 C 10.171875 -4.476562 10.234375 -4.796875 10.234375 -5.140625 C 10.234375 -5.492188 10.164062 -5.8125 10.03125 -6.09375 C 9.894531 -6.375 9.671875 -6.59375 9.359375 -6.75 C 9.054688 -6.914062 8.640625 -7 8.109375 -7 Z M 5.375 -7 "/></g></g></g></svg>